<svg width="1325" height="189" viewBox="0 0 1325 189" fill="none" xmlns="http://www.w3.org/2000/svg">
<path fill-rule="evenodd" clip-rule="evenodd" d="M705.158 8.55693C697.267 9.99793 685.913 14.7989 682.234 18.2519C678.463 21.7909 675.025 28.5809 673.004 36.4829C671.233 43.4099 671.196 44.5849 672.518 52.1039C674.241 61.9009 677.646 68.1439 683.27 71.8179C685.529 73.2929 690.217 77.2379 693.688 80.5829C700.789 87.4269 701.517 90.1059 698.099 96.8069C696.589 99.7649 695.145 100.912 691.099 102.367C688.294 103.376 686 104.62 686 105.132C686 107.093 689.052 107.104 691.533 105.153C692.959 104.031 695.559 102.602 697.312 101.976C699.085 101.343 703.046 97.9499 706.238 94.3299C712.474 87.2559 714.651 81.9829 715.661 71.4999C716.252 65.3689 715.929 64.2139 710.999 54.8489C709.218 51.4649 702.485 45.1809 699 43.6499C691.258 40.2499 687.418 37.0869 685.821 32.7979C684.182 28.3959 684.199 28.1639 686.495 23.2089C689.547 16.6199 693.241 14.5639 702 14.5769C706.865 14.5839 709.758 15.2049 713.5 17.0429C717.917 19.2139 718.933 20.3509 722.214 26.7969C724.256 30.8109 726.229 35.7609 726.597 37.7969C726.966 39.8339 727.966 42.8499 728.821 44.4999C729.895 46.5729 730.506 51.3609 730.8 59.9999C731.034 66.8749 731.619 72.9899 732.101 73.5879C732.939 74.6299 733.317 90.4289 733.224 120.5C733.146 145.578 728.347 159.518 717.378 166.535C714.42 168.427 712 170.431 712 170.988C712 171.544 714.006 172 716.457 172C723.032 172 736.881 164.544 744 157.171C750.446 150.496 755.133 144.629 756.412 141.635C756.913 140.461 758.212 137.475 759.298 135C760.383 132.525 761.646 129.6 762.103 128.5C763.317 125.58 766.625 109.996 768.432 98.6849C770.333 86.7859 770.355 80.1549 768.563 59.9999C767.452 47.4969 767.417 42.3729 768.386 33.4999C769.046 27.4499 770.145 21.4879 770.828 20.2499C772.941 16.4229 770.144 17.5799 766.003 22.2469L762.235 26.4929L757.248 21.9969C746.61 12.4039 745.987 12.0239 735.366 8.63693C729.168 6.66093 715.738 6.62493 705.158 8.55693ZM787.5 8.42893C777.384 11.1379 776.671 12.2259 783.706 14.2129C789.533 15.8589 791.62 19.0559 793.51 29.2289C794.82 36.2849 797.083 44.4139 798.874 48.4999C799.356 49.5999 800.227 51.6929 800.809 53.1509C801.445 54.7459 803.88 56.8989 806.917 58.5509C813.26 62.0039 815.396 65.0769 814.557 69.5479C814.192 71.4949 813.215 73.0749 812.215 73.3369C805.847 75.0049 800.532 76.0779 794 77.0139C784.435 78.3829 783.231 79.4709 784.927 85.2069C785.626 87.5679 786.858 90.2429 787.664 91.1519C788.816 92.4479 789.232 97.1809 789.596 113.152C789.852 124.343 790.247 137.153 790.474 141.617C790.885 149.687 794.17 162.238 796.356 164.087C802.533 169.314 809.639 173.996 811.37 173.98C812.542 173.969 816.858 171.469 820.962 168.425C827.656 163.46 841.427 156 843.899 156C845.386 156 849 150.945 849 148.865C849 146.618 846.308 146.453 843.559 148.532C841.187 150.326 833.983 150.459 831.746 148.75C830.846 148.063 829.086 145.025 827.835 142C825.687 136.806 825.553 135.081 825.426 111C825.325 91.8359 824.901 83.7639 823.719 78.5149C822.608 73.5839 822.454 71.1579 823.195 70.2649C824.604 68.5669 828.961 68.6679 833.346 70.4999C837.835 72.3759 842.619 72.4339 843.315 70.6219C843.902 69.0909 842.239 66.9999 840.435 66.9999C839.794 66.9999 838.114 66.0909 836.702 64.9799C833.168 62.2009 831.629 54.4509 831.54 38.9999L831.469 26.4999L827.77 20.8549C824.629 16.0579 822.976 14.6689 816.786 11.6199C810.631 8.58893 808.18 7.95893 801 7.56093C795.597 7.26193 790.678 7.57793 787.5 8.42893ZM45.981 20.0019C31.813 21.3619 21.502 25.9529 17.393 32.7299C16.469 34.2539 14.924 36.6569 13.959 38.0709C11.616 41.5039 8 54.6219 8 59.6869C8 63.8549 10.83 71.4449 14.143 76.1639C15.172 77.6299 19.109 80.8669 22.891 83.3589C30.677 88.4879 34 93.7109 34 100.816C34 105.522 34.038 105.549 37.886 103.559C41.751 101.56 45.486 96.3579 48.056 89.3949C51.085 81.1879 51.324 79.2019 50.087 72.5109C48.786 65.4749 44.512 58.8579 38.113 53.9719C35.612 52.0619 31.639 48.6469 29.283 46.3819C25.379 42.6279 25.001 41.8309 25.015 37.3819C25.036 30.3479 26.671 27.8679 33.028 25.2269C40.005 22.3279 45.004 22.8419 51.97 27.1719C56.384 29.9159 57.708 31.5019 60.56 37.4579L63.932 44.4999L63.987 69.9999C64.043 95.7799 63.771 103.036 62.459 110.75C62.062 113.088 62.133 115 62.618 114.999C63.575 114.999 72.662 111.648 77.5 109.512C79.15 108.784 81.729 107.914 83.232 107.579C86.864 106.771 92.672 101.563 94.974 97.0519C99.373 88.4289 100.276 82.4159 100.391 60.9999L100.5 40.4999L103.286 36.5569C104.819 34.3889 105.944 31.9509 105.786 31.1399C105.218 28.2109 103.056 28.9499 100.541 32.9349C97.464 37.8089 95.808 38.0159 92.78 33.9029C88.86 28.5769 78.358 23.1239 67.842 20.9539C57.902 18.9029 57.574 18.8889 45.981 20.0019ZM122.39 22.0479C115.576 23.2419 111.742 24.7729 112.499 25.9979C112.839 26.5489 114.471 26.9999 116.125 26.9999C123.721 26.9999 126.295 31.6499 126.216 45.2219C126.162 54.2489 126.395 55.4629 129.186 60.7569C130.851 63.9159 133.24 67.6249 134.495 68.9999C140.269 75.3299 137.611 80.5309 125.502 86.5969C118.477 90.1159 117.771 90.7699 114.986 96.3439C111.541 103.237 111.416 104.499 113.622 110.015C115.212 113.987 120.321 118.895 138.588 134C147.568 141.425 149 142.814 149 144.099C149 144.703 149.723 146.721 150.606 148.583C152.097 151.725 152.084 152.326 150.417 156.961C148.257 162.968 149.269 164.618 152.589 160.5C153.919 158.85 156.591 155.888 158.526 153.918C165.412 146.907 170.646 132.543 169.689 123.279C168.446 111.231 158.54 99.3099 146.749 95.6719C142.344 94.3119 140.647 93.2189 139.499 90.9979C137.394 86.9269 137.634 82.7349 140.157 79.5269C142.122 77.0289 142.731 76.8389 146.969 77.4009C149.529 77.7409 154.172 78.9149 157.287 80.0089C163.509 82.1959 170.495 82.6259 171.569 80.8879C172.411 79.5259 170.242 78.0359 167.385 78.0149C166.222 78.0069 164.084 77.0669 162.635 75.9269C160.021 73.8719 160 73.7459 160 60.3749C160 41.8829 158.314 34.6879 152.708 29.2589C146.364 23.1159 133.611 20.0829 122.39 22.0479ZM264.801 31.6249C263.316 32.4149 257.691 33.6089 252.301 34.2799L242.5 35.4999L241.727 48.4999C241.278 56.0359 241.427 72.2169 242.08 86.9999C242.917 105.923 242.916 116.498 242.079 128C240.984 143.047 240.872 143.566 238.226 145.745C236.727 146.98 235.211 147.992 234.857 147.995C234.503 147.998 233.954 148.676 233.637 149.503C233.243 150.531 235.502 152.928 240.78 157.082C245.026 160.423 249.764 165.034 251.308 167.329C252.853 169.623 254.428 171.611 254.808 171.747C255.189 171.883 256.625 169.873 258 167.281C260.849 161.91 269.752 154.2 274.111 153.328C278.668 152.416 278.541 151.127 273.681 148.977C271.224 147.89 268.941 146.289 268.607 145.419C268.273 144.549 268 140.273 268 135.918C268 129.229 268.323 127.677 270.082 125.918C271.873 124.127 272.891 123.93 277.332 124.515C280.175 124.888 283.153 125.819 283.951 126.583C285.054 127.64 285.533 131.906 285.951 144.404C286.253 153.441 286.725 161.052 287 161.318C289.707 163.933 303.281 172 304.975 172C307.105 172 325 157.64 325 155.931C325 154.679 320.775 152 318.801 152C316.07 152 314.292 148.128 313.575 140.619C312.694 131.397 310.958 127.662 306.038 124.407C301.525 121.42 301.662 120.829 307.285 119.032C312.796 117.27 314.405 114.116 315.045 103.82C315.474 96.9239 316.061 94.4089 317.785 92.0769C318.992 90.4449 319.713 88.4169 319.389 87.5699C319.064 86.7239 316.406 84.6629 313.484 82.9909C310.561 81.3179 305.68 77.2609 302.637 73.9749C299.595 70.6889 296.591 67.9999 295.963 67.9999C295.335 67.9999 289.842 72.7089 283.757 78.4639C277.672 84.2199 272.253 88.6559 271.714 88.3229C271.122 87.9569 270.946 83.9129 271.27 78.1089C271.565 72.8239 271.513 59.9549 271.153 49.5109C270.442 28.8379 270.378 28.6579 264.801 31.6249ZM192.001 38.3059C189.628 39.1159 187.868 40.6849 186.527 43.1869L184.552 46.8729L187.7 53.1869C191.745 61.2969 195.978 65.4729 199.308 64.6379C202.685 63.7899 213.58 53.0489 214.155 49.9999C214.891 46.1029 213.23 41.3259 210.353 39.0629C207.314 36.6719 197.926 36.2849 192.001 38.3059ZM1052.31 38.1019C1048.56 39.1879 1045 43.3159 1045 46.5819C1045 51.8439 1054.33 64.9999 1058.07 64.9999C1060.44 64.9999 1069.49 57.5539 1071.94 53.5919C1074.98 48.6709 1074.66 43.5029 1071.08 39.9229C1068.44 37.2809 1067.55 37.0089 1061.83 37.0899C1058.35 37.1399 1054.07 37.5949 1052.31 38.1019ZM570 39.5089C570 40.3379 571.394 42.9259 573.098 45.2589C576.01 49.2439 576.17 49.9219 575.76 56.4999C575.519 60.3499 574.553 64.9819 573.613 66.7939C568.462 76.7169 553.708 76.2689 544.132 65.8979C541.596 63.1509 539.707 61.8979 538.691 62.2879C537.835 62.6169 535.556 65.3529 533.627 68.3689C531.698 71.3839 528.765 74.8529 527.109 76.0779C522.327 79.6129 522.511 80.7069 528.447 84.0569C531.412 85.7299 534.365 87.7349 535.01 88.5119C536.588 90.4129 545.774 93.7699 554.323 95.5679C564.098 97.6239 566.108 100.853 561.875 107.703C559.947 110.821 551.327 116 548.064 116C547.479 116 547 116.675 547 117.5C547 118.483 547.983 119 549.851 119C557.495 119 564.662 125.438 566.856 134.275C567.836 138.223 567.769 139.985 566.47 144.454C564.647 150.727 561.632 155 559.031 155C558.028 155 555.92 153.537 554.347 151.75C549.649 146.412 540.359 140.893 532.801 138.949C521.632 136.076 519.942 133.075 525.862 126.627C528.776 123.453 533.685 120.994 538.918 120.086C543.65 119.265 543.867 117.385 539.328 116.534C530.556 114.888 522.792 108.875 520.918 102.274C519.249 96.3999 519.25 87.2699 520.919 84.1509C521.603 82.8739 521.951 81.6179 521.694 81.3599C520.956 80.6229 515.945 84.0879 510.643 88.9999C504.079 95.0829 501.79 99.8779 501.209 108.765L500.735 116.03L508.227 123.329C519.218 134.039 519.3 137.809 508.77 148.298C499.989 157.044 500.264 158.05 511.847 159.537C516.321 160.111 520.525 161.125 521.19 161.79C521.856 162.456 523.405 163 524.633 163C526.102 163 528.155 164.626 530.632 167.75C537.742 176.718 538.543 176.834 546.211 170C549.296 167.25 552.117 165 552.48 165C552.843 165 555.021 163.717 557.32 162.148C559.619 160.58 562.072 159.114 562.771 158.891C565.104 158.147 581.921 140.687 583.491 137.378C584.342 135.584 585.442 131.96 585.934 129.325C587.194 122.579 583.721 114.595 575.883 106.216C568.034 97.8259 568.167 94.4259 576.789 83.0339C582.995 74.8349 584.573 65.1349 581.574 53.6209C579.404 45.2899 570 33.8229 570 39.5089ZM952.253 48.9319C945.079 54.1289 939.955 62.6429 940.045 69.2179C940.115 74.2799 942.137 77.9199 946.507 80.8519C951.354 84.1039 955.218 91.2949 953.934 94.6729C953.466 95.9049 953.226 105.82 953.401 116.707C953.798 141.376 953.064 147.661 949.413 150.817C946.327 153.484 946.549 153.809 954 157.552C962.988 162.066 969.569 166.704 973.785 171.493C975.967 173.972 978.533 176 979.487 176C980.442 176 983.312 174.251 985.865 172.113C992.473 166.58 1001.62 161.439 1008.01 159.662C1016.23 157.376 1022.31 155.016 1024.07 153.432C1027.78 150.091 1030.25 142.911 1030.55 134.635C1031.17 117.031 1031.12 94.1579 1030.44 90.4279C1029.09 82.9999 1024.73 75.9539 1018.35 70.8769C1013.9 67.3419 1011.03 67.6209 1007.4 71.9419C1006.08 73.5109 1002.75 76.2379 999.997 78.0019C994.361 81.6179 993.731 83.8559 997.51 86.8289C1000.96 89.5389 1002.68 94.5469 1002.23 100.5C1002.02 103.25 1001.98 107.525 1002.14 110C1002.3 112.475 1002.44 122.17 1002.46 131.544C1002.49 146.217 1002.25 148.965 1000.73 151.294C998.427 154.804 995.376 154.756 990.978 151.141C989.065 149.569 986.487 147.964 985.249 147.574C984.011 147.184 982.494 145.923 981.878 144.773C980.364 141.942 979.38 96.2189 980.749 92.2909C981.84 89.1609 979.271 76.3589 976.462 70.9259C974.81 67.7309 967.696 63.9999 963.257 63.9999C961.086 63.9999 959.518 63.2029 958.073 61.3649C955.347 57.8999 955.457 55.4339 958.5 51.8179C959.875 50.1839 961 48.2059 961 47.4229C961 45.0419 956.567 45.8069 952.253 48.9319ZM1190.88 53.3319C1185.92 54.9269 1178.47 62.0299 1176.97 66.5899C1176.19 68.9449 1175.95 72.8969 1176.32 77.2809C1176.94 84.6799 1178.27 87.0549 1183.24 89.6229C1189.5 92.8609 1190.05 96.3259 1190.26 134C1190.34 148.57 1190.07 152.036 1188.68 154.7C1187.76 156.461 1187 158.486 1187.01 159.2C1187.02 159.915 1189.51 162.229 1192.56 164.342C1195.6 166.455 1199.2 169.942 1200.56 172.092C1201.91 174.241 1203.68 176 1204.47 176C1205.93 176 1211 171.163 1211 169.773C1211 169.362 1212.9 167.824 1215.23 166.356C1217.55 164.888 1220.02 163.123 1220.71 162.433C1221.4 161.744 1224.11 160.387 1226.73 159.417C1232.78 157.182 1234.39 155.99 1233.1 154.698C1232.45 154.049 1231.07 154.142 1229.07 154.969C1225.44 156.473 1221.5 155.688 1220.48 153.259C1219.11 149.988 1217.77 102.813 1218.94 98.8529C1220.13 94.8229 1218.1 83.4149 1215.48 79.3559C1213.83 76.8049 1202.59 71.1329 1197.58 70.3189C1193.55 69.6649 1192.28 68.4729 1191.05 64.1659C1189.79 59.7969 1191.7 57.7409 1197.63 57.0599C1201.65 56.5979 1202.5 56.1499 1202.5 54.4999C1202.5 52.8609 1201.78 52.4699 1198.5 52.3319C1196.3 52.2389 1192.87 52.6889 1190.88 53.3319ZM433.714 68.5389C432.496 69.9359 428.157 74.4059 424.072 78.4719C417.769 84.7449 416.835 86.0969 417.912 87.3939C418.61 88.2349 420.002 89.1829 421.007 89.5019C424.29 90.5439 424.8 94.9619 424.362 118.593C423.829 147.353 423.79 147.601 419.442 150.167C417.549 151.284 416 152.789 416 153.512C416 154.235 419.323 156.468 423.384 158.475C428.538 161.022 432.644 164.067 436.984 168.562C440.403 172.103 443.757 175 444.437 175C445.118 175 448.123 173.246 451.116 171.103C456.536 167.222 468.673 161 470.824 161C472.451 161 475.3 156.295 474.478 154.965C474.027 154.235 472.139 154.068 469.082 154.489C463.813 155.213 456.582 152.956 455.059 150.111C454.574 149.204 453.626 144.694 452.953 140.089C451.661 131.253 452.187 102.576 453.762 95.9999C454.335 93.6069 454.191 91.7089 453.306 89.9999C452.595 88.6249 452.01 86.0409 452.006 84.2589C452.002 82.1309 450.795 79.3829 448.492 76.2589C440.468 65.3729 437.725 63.9399 433.714 68.5389ZM1287.4 74.6209C1277.88 85.1429 1278.02 84.7059 1282.75 88.6339C1286.48 91.7349 1286.82 92.4459 1287.54 98.7349C1289.39 114.986 1287.13 149.383 1283.95 153.307L1282.17 155.5L1279.83 153.412C1278.55 152.263 1275.81 150.311 1273.74 149.072C1271.67 147.834 1269.44 145.849 1268.8 144.661C1267.99 143.178 1267.57 134.181 1267.47 116C1267.37 98.2559 1266.93 88.5549 1266.15 86.6389C1263.08 79.2099 1251.97 67.9999 1247.67 67.9999C1246.82 67.9999 1244.06 70.6799 1241.54 73.9549C1239.01 77.2299 1234.94 81.3559 1232.48 83.1239C1230.01 84.8919 1228 86.9029 1228 87.5919C1228 88.2809 1229.61 89.3759 1231.58 90.0259C1233.74 90.7409 1235.91 92.4469 1237.07 94.3529C1238.85 97.2809 1238.96 99.3479 1238.68 124C1238.45 144.375 1238.06 151.001 1237 152.669C1235.11 155.643 1236.73 157.423 1243.33 159.595C1249.8 161.729 1259.09 167.939 1262.51 172.419C1263.93 174.293 1265.8 176.094 1266.66 176.421C1267.57 176.772 1270.94 175.227 1274.85 172.664C1285.26 165.848 1292.02 162.357 1298.25 160.584C1302.52 159.366 1305.25 157.73 1308.89 154.198C1313.53 149.705 1313.83 149.102 1314.41 142.975C1315.46 131.806 1314.5 91.9299 1313.06 87.3869C1312.2 84.6439 1309.18 80.5649 1304.01 75.1369C1299.75 70.6619 1295.82 66.9999 1295.28 66.9999C1294.74 66.9999 1291.19 70.4299 1287.4 74.6209ZM382.935 70.5779C380.643 73.3399 372.338 76.9369 363.28 79.0919C358.451 80.2399 353.825 81.5829 353 82.0749C352.175 82.5669 350.15 83.5939 348.5 84.3559C343.551 86.6429 338.376 92.7029 336.163 98.8009C332.025 110.204 333.532 146.98 338.446 154.541C341.464 159.185 348.952 165.777 355.835 169.85C364.332 174.878 367.081 174.897 373.873 169.977C376.133 168.34 378.324 167.007 378.741 167.015C379.159 167.023 384.55 164.912 390.722 162.325C403.362 157.025 408.172 153.836 406.343 151.968C405.455 151.061 403.878 151.276 399.556 152.893C392.247 155.628 384.199 155.652 378.915 152.957C372.805 149.839 367.283 144.334 365.607 139.686C363.53 133.928 362.115 121.063 361.788 104.947C361.552 93.3679 361.769 91.0009 363.279 88.6969C364.251 87.2139 365.641 85.9999 366.368 85.9999C368.104 85.9999 370.571 88.8699 371.526 91.9999C371.945 93.3749 373.381 95.9359 374.718 97.6909C377.673 101.573 381.165 110.447 380.431 112.214C380.138 112.921 377.784 115.066 375.199 116.98C371.382 119.806 370.862 120.531 372.427 120.837C374.137 121.172 378.145 119.595 392.5 112.939C394.7 111.918 397.738 110.84 399.25 110.542C400.762 110.244 403.095 109.774 404.433 109.498C409.091 108.536 408.473 105.907 399.457 88.3269C394.71 79.0719 390.361 70.9379 389.791 70.2499C388.346 68.5059 384.502 68.6899 382.935 70.5779ZM906.935 70.5779C904.643 73.3399 896.338 76.9369 887.28 79.0919C882.451 80.2399 877.825 81.5829 877 82.0749C876.175 82.5669 874.15 83.5939 872.5 84.3559C867.555 86.6409 862.376 92.7039 860.159 98.8009C857.251 106.798 856.877 130.359 859.439 144.136C861.202 153.618 861.322 153.868 866.865 159.652C869.964 162.885 875.801 167.479 879.835 169.86C888.332 174.876 891.085 174.894 897.873 169.977C900.133 168.34 902.308 167 902.705 167C903.102 167 908.487 164.895 914.671 162.322C927.157 157.126 932.174 153.838 930.392 152.016C929.568 151.174 927.716 151.411 923.173 152.942C915.3 155.594 908.095 155.599 902.915 152.957C896.806 149.84 891.284 144.334 889.604 139.686C887.748 134.55 886.214 121.462 885.586 105.392C885.194 95.3529 885.402 92.7049 886.806 89.8919C889.173 85.1509 891.943 85.3989 894.564 90.5839C895.699 92.8309 897.588 96.0169 898.762 97.6659C899.936 99.3149 901.86 103.102 903.039 106.082L905.181 111.5L899.84 116.239C895.368 120.207 894.861 120.98 896.72 120.989C897.941 120.995 901.597 119.65 904.844 118C908.091 116.35 911.367 114.997 912.124 114.993C912.881 114.99 914.85 114.093 916.5 113.001C918.15 111.909 921.667 110.725 924.316 110.37C929.995 109.609 932.355 107.699 931.391 104.645C930.535 101.931 915.183 71.9279 913.791 70.2499C912.345 68.5059 908.502 68.6899 906.935 70.5779ZM1141.08 71.4189C1138.16 74.5259 1131.45 77.3539 1122 79.4669C1108.31 82.5259 1098.35 89.5589 1096.44 97.5049C1096.05 99.1519 1095.38 100.95 1094.95 101.5C1094.53 102.05 1093.88 109.025 1093.51 117C1092.98 128.243 1093.16 132.89 1094.31 137.687C1095.13 141.089 1095.58 144.083 1095.33 144.339C1095.07 144.596 1095.43 146.762 1096.12 149.153C1098.02 155.731 1105.48 163.732 1114.96 169.361C1124.24 174.872 1126.18 174.965 1133.3 170.246C1135.61 168.715 1138.85 166.957 1140.5 166.34C1160.06 159.03 1168.6 154.273 1166.33 151.956C1165.43 151.032 1163.74 151.242 1158.89 152.881C1150.18 155.822 1143.02 155.679 1137.52 152.456C1131.47 148.915 1125.24 141.887 1124.56 137.84C1124.25 136.003 1123.43 131.35 1122.75 127.5C1122.06 123.65 1121.5 113.649 1121.5 105.277C1121.5 90.9959 1121.63 89.9189 1123.67 87.8879C1126.48 85.0729 1128.68 85.9689 1130.64 90.7359C1131.5 92.8059 1133.19 95.8499 1134.41 97.4999C1135.62 99.1499 1137.65 102.955 1138.92 105.955L1141.23 111.411L1135.87 116.174C1131.09 120.414 1130.76 120.94 1132.91 120.968C1134.24 120.986 1137.16 119.936 1139.41 118.635C1141.66 117.334 1145.3 115.695 1147.5 114.993C1149.7 114.29 1152.38 113.107 1153.46 112.364C1154.54 111.62 1157.6 110.724 1160.25 110.372C1166.73 109.512 1168.5 107.14 1166.41 102.099C1165.58 100.119 1163.45 96.0249 1161.67 92.9999C1159.88 89.9749 1157.38 85.0469 1156.1 82.0489C1152.05 72.5699 1149.33 68.9999 1146.16 68.9999C1144.48 68.9999 1142.44 69.9719 1141.08 71.4189ZM468.138 83.0949C457.216 93.6839 454.742 97.3559 461.033 93.6399C462.667 92.6739 464.362 92.1059 464.8 92.3769C465.575 92.8549 467.818 97.5589 471.891 107.25C474.82 114.218 477.26 113.843 486.153 105.054C492.777 98.5089 493.141 97.9169 492.462 94.8039C491.774 91.6499 489.384 86.2189 484.846 77.4999C482.941 73.8409 481.295 71.9909 480 72.0549C479.725 72.0689 474.387 77.0369 468.138 83.0949ZM191.028 80.7499C188.392 83.3619 184.802 86.7139 183.049 88.1979L179.863 90.8949L182.149 93.9869C183.813 96.2379 184.528 98.7689 184.777 103.289C185.068 108.568 185.123 121.483 184.884 128.5C184.847 129.6 184.84 132.525 184.869 135C184.898 137.475 184.846 141.3 184.752 143.5C184.659 145.7 185.359 151.709 186.309 156.853C187.77 164.767 188.59 166.883 191.638 170.603C196.233 176.211 198.645 176.264 205.735 170.91C208.715 168.661 213.256 165.905 215.826 164.787C218.397 163.669 221.287 162.064 222.25 161.222C224.588 159.175 224.527 156 222.149 156C221.131 156 218.833 155.489 217.042 154.865C211.61 152.971 211 150.008 211 125.5C211 102.031 211.509 99.2359 216.803 93.6579L219.5 90.8159L215.388 87.1579C210.769 83.0489 199.267 75.9999 197.182 75.9999C196.433 75.9999 193.663 78.1379 191.028 80.7499ZM1049.74 81.6159C1039.73 90.6229 1039.71 90.6629 1041.95 93.8269C1043.44 95.9259 1044.04 99.3999 1044.77 110C1045.36 118.521 1045.34 124.286 1044.74 125.631C1044.14 126.978 1044.14 129.394 1044.73 132.198C1045.31 134.877 1045.32 137.598 1044.78 139.067C1043.69 141.974 1044.52 150.889 1046.75 160.451C1047.94 165.58 1049.27 168.397 1051.8 171.201C1056.2 176.068 1058.88 176.072 1065.41 171.22C1072.75 165.774 1075.72 164 1077.51 164C1079.54 164 1084 159.563 1084 157.545C1084 156.572 1083.09 156 1081.55 156C1077.67 156 1073.98 153.864 1072.33 150.663C1071.08 148.253 1070.83 143.632 1070.94 125.31C1071.02 112.927 1071.54 101.695 1072.1 100.202C1072.66 98.7159 1074.56 95.9979 1076.31 94.1609L1079.5 90.8219L1075.11 87.0099C1070.22 82.7679 1059.25 75.9999 1057.26 75.9999C1056.56 75.9999 1053.17 78.5269 1049.74 81.6159ZM276.121 96.2499L271.036 100.5L271.018 110.329L271 120.159L274.246 119.446C279.53 118.285 283.722 115.889 285.156 113.208C287.164 109.456 286.899 98.0209 284.727 94.7059C283.752 93.2179 282.56 91.9999 282.08 91.9999C281.599 91.9999 278.917 93.9119 276.121 96.2499ZM691 118.735C681.755 119.829 676.425 132.792 679.37 147.021C680.582 152.874 681.645 155.07 685.553 159.795C692.176 167.801 696.018 171.004 698.962 170.973L701.5 170.946L698.241 168.223C692.48 163.41 693.98 158.273 704 148.5C707.383 145.2 710.793 141.285 711.576 139.8C713.762 135.654 713.377 128.86 710.73 124.898C706.779 118.983 701.864 117.448 691 118.735ZM44.5 124.478C34.91 126.309 29.692 128.349 25.041 132.087C21.628 134.83 16 141.921 16 143.479C16 144.8 18.88 143.787 20.595 141.862C27.771 133.809 39.953 136.022 53.637 147.866C57.963 151.61 62.8 156.547 64.387 158.837C65.974 161.127 67.754 163 68.344 163C68.933 163 71.01 164.537 72.958 166.416C77.569 170.863 86.96 175.493 94.5 177.038C103.534 178.889 126.848 177.636 134 174.915C140.186 172.562 142 171.331 142 169.487C142 168.611 139.72 168.103 134.629 167.846C127.418 167.482 127.096 167.351 119.879 161.807C115.82 158.69 110.802 154.098 108.727 151.602C105.31 147.492 92.688 137.454 82.258 130.552C77.443 127.365 69.574 125.05 62 124.59C58.975 124.407 55.375 124.006 54 123.699C52.625 123.392 48.35 123.743 44.5 124.478Z" fill="black"/>
</svg>
