<svg width="323" height="31" viewBox="0 0 323 31" fill="none" xmlns="http://www.w3.org/2000/svg">
<path d="M-4.1394e-06 29.6755V1.24542C-4.1394e-06 1.01637 0.0715723 0.830275 0.214725 0.687122C0.386508 0.515338 0.586922 0.429446 0.815966 0.429446H10.8223C13.3705 0.429446 15.5464 1.20247 17.3501 2.74852C19.1538 4.29457 20.0557 6.18419 20.0557 8.41737C20.0557 9.90616 19.5403 11.2375 18.5096 12.4113C17.5076 13.5852 16.3624 14.5157 15.074 15.2028C18.9105 16.8061 20.8287 19.1395 20.8287 22.203C20.8287 24.5793 19.9125 26.5548 18.0802 28.1295C16.2765 29.7042 14.0719 30.4915 11.4665 30.4915H0.815966C0.586922 30.4915 0.386508 30.4199 0.214725 30.2768C0.0715723 30.105 -4.1394e-06 29.9046 -4.1394e-06 29.6755ZM6.69954 12.6261H10.0493C10.8796 12.6261 11.5811 12.3254 12.1537 11.7242C12.7549 11.123 13.0555 10.3929 13.0555 9.53396C13.0555 8.70367 12.7549 8.01654 12.1537 7.47256C11.5811 6.89995 10.8796 6.61364 10.0493 6.61364H6.69954V12.6261ZM6.69954 24.3503H10.6076C11.4379 24.3503 12.1537 24.0496 12.7549 23.4484C13.3848 22.8185 13.6997 22.0741 13.6997 21.2152C13.6997 20.3849 13.3275 19.6835 12.5831 19.1109C11.8674 18.5096 11.0657 18.209 10.1782 18.209H6.69954V24.3503ZM27.1548 29.6755V1.24542C27.1548 1.045 27.2407 0.858905 27.4125 0.687122C27.5843 0.515338 27.7704 0.429446 27.9708 0.429446H33.1243C33.3247 0.429446 33.5108 0.515338 33.6826 0.687122C33.8544 0.858905 33.9403 1.045 33.9403 1.24542V29.6755C33.9403 29.876 33.8544 30.0621 33.6826 30.2338C33.5108 30.4056 33.3247 30.4915 33.1243 30.4915H27.9708C27.7704 30.4915 27.5843 30.4056 27.4125 30.2338C27.2407 30.0621 27.1548 29.876 27.1548 29.6755ZM42.1892 29.4608V1.46014C42.1892 1.17384 42.2894 0.93048 42.4898 0.730067C42.6903 0.529653 42.9336 0.429446 43.2199 0.429446H48.2446C48.5309 0.429446 48.7742 0.529653 48.9747 0.730067C49.1751 0.93048 49.2753 1.17384 49.2753 1.46014V12.7549L58.8093 0.858903C59.0383 0.572598 59.3103 0.429446 59.6252 0.429446H65.0364C65.4372 0.429446 65.7235 0.615544 65.8953 0.987742C66.0671 1.35994 66.0385 1.70351 65.8094 2.01844L55.7601 14.6016L66.7113 28.8596C66.9403 29.1745 66.9546 29.5181 66.7542 29.8903C66.5824 30.2625 66.2961 30.4486 65.8953 30.4486H59.9688C59.5966 30.4486 59.3389 30.3484 59.1958 30.1479L49.2753 16.663V29.4608C49.2753 29.7471 49.1751 29.9905 48.9747 30.1909C48.7742 30.3913 48.5309 30.4915 48.2446 30.4915H43.2199C42.9336 30.4915 42.6903 30.3913 42.4898 30.1909C42.2894 29.9905 42.1892 29.7471 42.1892 29.4608ZM71.9443 29.6755V1.24542C71.9443 1.01637 72.0159 0.830275 72.159 0.687122C72.3308 0.515338 72.5312 0.429446 72.7603 0.429446H90.5398C90.7689 0.429446 90.955 0.515338 91.0981 0.687122C91.2699 0.830275 91.3558 1.01637 91.3558 1.24542V5.92651C91.3558 6.15556 91.2699 6.35597 91.0981 6.52775C90.955 6.6709 90.7689 6.74248 90.5398 6.74248H78.6438V12.0678H88.4355C88.6645 12.0678 88.8506 12.1537 88.9938 12.3254C89.1656 12.4686 89.2515 12.6547 89.2515 12.8837V17.5648C89.2515 17.7939 89.1656 17.9943 88.9938 18.1661C88.8506 18.3092 88.6645 18.3808 88.4355 18.3808H78.6438V24.1785H90.5398C90.7689 24.1785 90.955 24.2644 91.0981 24.4362C91.2699 24.5793 91.3558 24.7654 91.3558 24.9945V29.6755C91.3558 29.9046 91.2699 30.105 91.0981 30.2768C90.955 30.4199 90.7689 30.4915 90.5398 30.4915H72.7603C72.5312 30.4915 72.3308 30.4199 72.159 30.2768C72.0159 30.105 71.9443 29.9046 71.9443 29.6755ZM97.9668 29.6755V1.24542C97.9668 1.01637 98.0384 0.830275 98.1815 0.687122C98.3533 0.515338 98.5537 0.429446 98.7827 0.429446H111.624C114.2 0.429446 116.405 1.34562 118.237 3.17798C120.07 4.9817 120.986 7.15762 120.986 9.70574C120.986 11.624 120.399 13.3561 119.225 14.9022C118.08 16.4196 116.548 17.5648 114.63 18.3379L120.513 29.2461C120.685 29.5324 120.685 29.8187 120.513 30.105C120.37 30.3627 120.127 30.4915 119.783 30.4915H114.071C113.757 30.4915 113.527 30.3627 113.384 30.105L107.673 18.7244H104.709V29.6755C104.709 29.876 104.623 30.0621 104.452 30.2338C104.308 30.4056 104.122 30.4915 103.893 30.4915H98.7827C98.5537 30.4915 98.3533 30.4199 98.1815 30.2768C98.0384 30.105 97.9668 29.9046 97.9668 29.6755ZM104.709 13.2702H111.065C111.953 13.2702 112.712 12.9267 113.341 12.2395C114 11.5524 114.329 10.7508 114.329 9.83458C114.329 8.94703 114 8.18832 113.341 7.55845C112.712 6.89995 111.953 6.5707 111.065 6.5707H104.709V13.2702ZM126.093 27.6141C125.864 27.3851 125.735 27.2133 125.706 27.0988C125.678 26.9556 125.735 26.7266 125.878 26.4117L127.897 22.8472C128.04 22.5895 128.283 22.4463 128.627 22.4177C128.97 22.3891 129.214 22.4463 129.357 22.5895L129.657 22.7613C129.858 22.9044 130.087 23.0619 130.345 23.2337C130.631 23.4055 130.974 23.5916 131.375 23.792C131.805 23.9924 132.22 24.1785 132.621 24.3503C133.05 24.522 133.508 24.6652 133.995 24.7797C134.51 24.8942 134.997 24.9515 135.455 24.9515C136.314 24.9515 137.015 24.7081 137.559 24.2214C138.132 23.7347 138.418 23.1192 138.418 22.3748C138.418 20.6569 136.944 19.2111 133.995 18.0372C128.441 15.8327 125.663 12.669 125.663 8.5462C125.663 6.22713 126.537 4.22299 128.283 2.53379C130.03 0.844589 132.463 -1.2205e-05 135.584 -1.2205e-05C138.791 -1.2205e-05 141.854 1.07363 144.774 3.22092C145.003 3.36408 145.132 3.59312 145.161 3.90806C145.189 4.22299 145.147 4.45204 145.032 4.59519L142.842 7.90202C142.67 8.15969 142.427 8.36011 142.112 8.50326C141.825 8.61778 141.582 8.60347 141.382 8.46031C141.353 8.46031 141.181 8.34579 140.866 8.11675C140.551 7.8877 140.193 7.67297 139.793 7.47256C139.392 7.24352 138.934 7.00016 138.418 6.74248C137.932 6.48481 137.402 6.28439 136.829 6.14124C136.257 5.96946 135.727 5.88357 135.24 5.88357C134.467 5.88357 133.823 6.09829 133.308 6.52775C132.792 6.95721 132.535 7.47256 132.535 8.0738C132.535 8.87546 132.893 9.60554 133.608 10.264C134.324 10.8939 135.527 11.5524 137.216 12.2395C142.999 14.53 145.891 17.7939 145.891 22.0312C145.891 24.3789 144.946 26.4546 143.057 28.2583C141.196 30.0334 138.762 30.921 135.756 30.921C133.322 30.921 131.289 30.5631 129.657 29.8473C128.054 29.1316 126.866 28.3872 126.093 27.6141ZM162.32 29.6755V1.24542C162.32 1.01637 162.392 0.830275 162.535 0.687122C162.707 0.515338 162.907 0.429446 163.136 0.429446H175.977C178.554 0.429446 180.758 1.34562 182.59 3.17798C184.423 4.9817 185.339 7.15762 185.339 9.70574C185.339 11.624 184.752 13.3561 183.578 14.9022C182.433 16.4196 180.901 17.5648 178.983 18.3379L184.867 29.2461C185.038 29.5324 185.038 29.8187 184.867 30.105C184.723 30.3627 184.48 30.4915 184.137 30.4915H178.425C178.11 30.4915 177.881 30.3627 177.738 30.105L172.026 18.7244H169.063V29.6755C169.063 29.876 168.977 30.0621 168.805 30.2338C168.662 30.4056 168.476 30.4915 168.247 30.4915H163.136C162.907 30.4915 162.707 30.4199 162.535 30.2768C162.392 30.105 162.32 29.9046 162.32 29.6755ZM169.063 13.2702H175.419C176.306 13.2702 177.065 12.9267 177.695 12.2395C178.353 11.5524 178.682 10.7508 178.682 9.83458C178.682 8.94703 178.353 8.18832 177.695 7.55845C177.065 6.89995 176.306 6.5707 175.419 6.5707H169.063V13.2702ZM191.949 29.6755V1.24542C191.949 1.01637 192.021 0.830275 192.164 0.687122C192.336 0.515338 192.536 0.429446 192.765 0.429446H210.545C210.774 0.429446 210.96 0.515338 211.103 0.687122C211.275 0.830275 211.361 1.01637 211.361 1.24542V5.92651C211.361 6.15556 211.275 6.35597 211.103 6.52775C210.96 6.6709 210.774 6.74248 210.545 6.74248H198.649V12.0678H208.441C208.67 12.0678 208.856 12.1537 208.999 12.3254C209.171 12.4686 209.256 12.6547 209.256 12.8837V17.5648C209.256 17.7939 209.171 17.9943 208.999 18.1661C208.856 18.3092 208.67 18.3808 208.441 18.3808H198.649V24.1785H210.545C210.774 24.1785 210.96 24.2644 211.103 24.4362C211.275 24.5793 211.361 24.7654 211.361 24.9945V29.6755C211.361 29.9046 211.275 30.105 211.103 30.2768C210.96 30.4199 210.774 30.4915 210.545 30.4915H192.765C192.536 30.4915 192.336 30.4199 192.164 30.2768C192.021 30.105 191.949 29.9046 191.949 29.6755ZM227.506 30.4486L214.107 1.54604C213.964 1.25973 213.978 1.00206 214.15 0.773013C214.293 0.543968 214.522 0.429446 214.837 0.429446H220.549C220.921 0.429446 221.164 0.586914 221.279 0.901851L228.365 16.5771H228.622L235.708 0.901851C235.823 0.586914 236.066 0.429446 236.438 0.429446H242.15C242.465 0.429446 242.694 0.543968 242.837 0.773013C243.009 1.00206 243.024 1.25973 242.88 1.54604L229.395 30.4486C229.224 30.7635 228.98 30.921 228.665 30.921H228.236C227.921 30.921 227.678 30.7635 227.506 30.4486ZM247.266 29.6755V1.24542C247.266 1.045 247.351 0.858905 247.523 0.687122C247.695 0.515338 247.881 0.429446 248.082 0.429446H253.235C253.435 0.429446 253.622 0.515338 253.793 0.687122C253.965 0.858905 254.051 1.045 254.051 1.24542V29.6755C254.051 29.876 253.965 30.0621 253.793 30.2338C253.622 30.4056 253.435 30.4915 253.235 30.4915H248.082C247.881 30.4915 247.695 30.4056 247.523 30.2338C247.351 30.0621 247.266 29.876 247.266 29.6755ZM262.3 29.6755V1.24542C262.3 1.01637 262.372 0.830275 262.515 0.687122C262.686 0.515338 262.887 0.429446 263.116 0.429446H280.895C281.125 0.429446 281.311 0.515338 281.454 0.687122C281.626 0.830275 281.711 1.01637 281.711 1.24542V5.92651C281.711 6.15556 281.626 6.35597 281.454 6.52775C281.311 6.6709 281.125 6.74248 280.895 6.74248H268.999V12.0678H278.791C279.02 12.0678 279.206 12.1537 279.349 12.3254C279.521 12.4686 279.607 12.6547 279.607 12.8837V17.5648C279.607 17.7939 279.521 17.9943 279.349 18.1661C279.206 18.3092 279.02 18.3808 278.791 18.3808H268.999V24.1785H280.895C281.125 24.1785 281.311 24.2644 281.454 24.4362C281.626 24.5793 281.711 24.7654 281.711 24.9945V29.6755C281.711 29.9046 281.626 30.105 281.454 30.2768C281.311 30.4199 281.125 30.4915 280.895 30.4915H263.116C262.887 30.4915 262.686 30.4199 262.515 30.2768C262.372 30.105 262.3 29.9046 262.3 29.6755ZM293.777 30.3197L285.66 1.46014C285.574 1.17384 285.602 0.93048 285.746 0.730067C285.889 0.529653 286.118 0.429446 286.433 0.429446H291.457C291.858 0.429446 292.116 0.629859 292.23 1.03069L295.924 15.5893H296.096L302.752 0.472391C302.924 0.157455 303.167 -1.2205e-05 303.482 -1.2205e-05H304.255C304.627 -1.2205e-05 304.871 0.157455 304.985 0.472391L311.642 15.5893H311.814L315.507 1.03069C315.622 0.629859 315.879 0.429446 316.28 0.429446H321.305C321.62 0.429446 321.849 0.529653 321.992 0.730067C322.135 0.93048 322.164 1.17384 322.078 1.46014L313.961 30.3197C313.875 30.7206 313.617 30.921 313.188 30.921H312.501C312.186 30.921 311.943 30.7635 311.771 30.4486L303.912 12.8837H303.783L295.967 30.4486C295.795 30.7635 295.552 30.921 295.237 30.921H294.55C294.12 30.921 293.862 30.7206 293.777 30.3197Z" fill="#FF7800"/>
</svg>
