<svg width="1612" height="247" viewBox="0 0 1612 247" fill="none" xmlns="http://www.w3.org/2000/svg">
<path fill-rule="evenodd" clip-rule="evenodd" d="M50.6991 19.2073C40.7094 22.7696 32.6332 30.4607 27.4916 41.3053C23.7444 49.2085 24.0854 50.1466 29.4593 46.7336C36.9995 41.9465 46.0426 41.8465 62.2612 46.3723C80.7495 51.5325 88.9988 51.731 100.844 47.3002C109.741 43.9703 121.646 33.6481 125.675 25.767C128.499 20.2437 128.06 19.801 122.566 22.6423C115.324 26.3878 101.769 25.7941 84.3254 20.9698C67.1806 16.2268 60.0967 15.8553 50.6991 19.2073ZM139.466 32.3674C112.298 51.0881 103.648 59.2169 100.819 68.6841C99.4023 73.4253 98.7204 90.0256 98.695 120.422C98.661 161.477 98.3778 165.795 95.2718 172.64C93.4109 176.744 92.1997 180.414 92.5814 180.796C93.7468 181.961 105.853 176.352 111.548 172.007C122.686 163.512 123.237 160.549 124.177 104.03C125.124 47.1933 125.01 47.7429 137.363 39.8516C145.149 34.8779 147.824 35.9755 154.128 46.7336C157.851 53.088 158.874 57.2491 159.434 68.3312C160.287 85.1809 156.223 97.5844 146.229 108.636L139.583 115.984L139.514 108.775C139.463 103.528 138.752 101.566 136.9 101.566C134.701 101.566 134.355 107.808 134.355 147.565V193.563L129.69 192.54C107.37 187.649 89.0225 190.511 71.9659 201.546C63.0568 207.31 45.1741 224.992 46.7059 226.524C47.0655 226.884 52.0951 224.938 57.883 222.202C78.8971 212.263 103.435 213.893 122.856 226.516L127.471 229.516L133.412 222.577C142.681 211.747 152.555 207.819 170.826 207.691L186.093 207.586L185.544 165.178C185.114 132.222 184.456 121.939 182.59 119.038C179.807 114.714 170.65 111.767 159.953 111.754L152.472 111.744L162.725 101.491C168.365 95.8508 175.355 86.7771 178.261 81.3268C189.571 60.1057 187.637 33.8618 173.849 21.4345C166.511 14.8206 163.583 15.7518 139.466 32.3674ZM837.483 19.9723C833.751 21.7043 828.257 25.694 825.271 28.8407C820.157 34.2333 811.796 50.15 813.292 51.6462C813.67 52.0244 817.935 50.664 822.768 48.6216L831.555 44.91L844.238 48.6403C851.212 50.6928 859.076 52.3722 861.712 52.3722C871.403 52.3722 889.908 36.425 893.557 24.9307C895.142 19.9401 893.622 19.5771 887.293 23.4362C879.6 28.1266 875.028 27.8331 862.352 21.8366C849.865 15.93 846.706 15.6925 837.483 19.9723ZM923.925 27.1291C903.662 38.7083 889.454 48.776 885.131 54.613C881.759 59.166 881.547 62.0039 880.74 113.136C879.924 164.79 879.746 167.122 876.132 173.236C871.691 180.75 872.854 181.02 884.97 175.288C900.848 167.777 907.881 155.57 907.881 135.523C907.881 130.347 908.634 128.697 911.397 127.82C913.781 127.063 915.689 127.71 917.313 129.825C921.09 134.744 928.172 158.493 931.265 176.61C934.076 193.088 934.072 193.174 930.463 196.786L926.836 200.412L921.175 196.952C906.256 187.831 878.49 185.263 861.057 191.39C848.949 195.646 836.852 204.923 828.215 216.584C824.449 221.666 821.368 226.454 821.368 227.223C821.368 227.993 827.285 225.798 834.515 222.346C847.098 216.338 848.426 216.068 865.51 216.068C882.524 216.068 883.913 216.346 895.196 222.005C901.706 225.27 907.499 228.161 908.071 228.429C908.641 228.697 914.661 221.886 921.448 213.294L933.789 197.671L938.366 207.756C943.512 219.091 950.798 226.139 960.001 228.678C963.417 229.623 966.275 230.224 966.352 230.017C966.811 228.767 977.766 202.183 978.421 200.733C978.859 199.764 976.577 198.016 973.352 196.85C966.113 194.231 961.914 186.078 957.923 166.874C951.634 136.627 947.463 128.688 934.763 122.804L926.53 118.99L933.957 113.204C944.413 105.058 949.49 98.5479 955.802 85.191C960.784 74.6484 961.292 72.0903 961.303 57.4612C961.314 43.1696 960.791 40.352 956.681 32.5591C951.947 23.577 946.528 18.4456 941.784 18.4456C940.318 18.4456 932.283 22.354 923.925 27.1291ZM322.648 26.3335C317.516 29.5481 309.014 33.3886 303.754 34.8678L294.19 37.5564L297.817 43.6921C301.343 49.6581 301.459 51.8158 301.968 121.43L302.492 193.032L294.758 200.443C287.069 207.81 285.094 211.819 289.145 211.837C295.291 211.864 304.974 216.119 310.734 221.323L317.24 227.199L328.515 218.665C334.717 213.971 340.513 210.131 341.397 210.131C345.663 210.131 342.186 204.414 335.424 200.312L327.844 195.712L327.791 182.742C327.737 169.95 327.821 169.695 333.833 164.418C337.187 161.473 340.812 159.355 341.891 159.707C346.415 161.192 351.502 172.403 355.621 189.963C361.48 214.952 365.67 222.997 375.461 228.061C379.753 230.28 380.131 230.097 384.592 223.659C387.152 219.966 392.964 214.109 397.507 210.645C407.081 203.344 407.968 200.786 400.401 202.299C390.111 204.356 384.033 196.738 376.862 172.791C372.471 158.126 369.385 151.372 364.762 146.308L361.475 142.707L375.943 131.408L390.413 120.11L384.457 111.82C381.181 107.262 376.664 99.0806 374.418 93.6422C372.172 88.2037 369.509 83.951 368.499 84.1936C367.49 84.4345 358.096 91.2011 347.624 99.2315L328.585 113.832L328.127 78.7908C327.684 45.0712 328.661 35.246 333.662 23.1105C335.35 19.0122 333.44 19.572 322.648 26.3335ZM914.298 40.0738C908.353 46.8913 907.881 50.4112 907.881 87.9798V125.506L913.155 122.442C921.18 117.778 932.444 104.414 934.702 96.877C937.799 86.5362 937.209 67.2524 933.467 56.6062C927.387 39.3071 920.3 33.1952 914.298 40.0738ZM233.621 43.8583C230.956 46.6403 225.865 50.932 222.308 53.3985C215.864 57.8632 214.977 61.875 220.844 60.0124C222.686 59.4289 226.556 60.8233 230.456 63.4797C235.287 66.7689 238.381 67.7002 242.359 67.0624C249.483 65.9208 256.111 61.4187 259.059 55.719C261.442 51.1101 261.422 51.0847 254.845 50.0329C250.143 49.2798 247.193 47.5088 244.615 43.8888C242.623 41.0916 240.425 38.8016 239.729 38.8016C239.034 38.8016 236.286 41.078 233.621 43.8583ZM1253.09 43.8871C1250.41 46.6844 1245.69 50.6911 1242.6 52.7929C1236.44 56.9879 1234.86 61.7512 1240.19 60.0582C1242.21 59.4187 1245.87 60.7028 1249.95 63.4797C1254.93 66.8724 1257.82 67.7087 1262.17 67.0115C1269.66 65.8105 1275.33 61.953 1278.43 55.9548L1280.95 51.0898L1274.13 49.999C1268.93 49.1678 1266.62 47.7022 1264.43 43.8651C1260.83 37.5395 1259.17 37.5429 1253.09 43.8871ZM864.625 60.2516C846.788 69.5543 840.028 78.9587 840.028 94.4683C840.028 103.238 840.013 103.262 834.515 103.357C825.797 103.51 817.404 107.13 815.076 111.744C812.427 116.994 812.249 131.945 814.758 138.351C816.58 143.002 816.666 143.029 818.055 139.419C819.977 134.425 824.813 132.1 833.283 132.1H840.331L839.733 157.969C839.241 179.212 838.569 184.884 835.97 189.688L832.805 195.541L837.689 192.43C848.472 185.563 856.842 178.453 860.631 172.942C864.54 167.259 864.643 166.113 865.473 118.66C866.282 72.4516 866.497 69.8868 870.08 63.8224C874.212 56.8301 872.87 55.9514 864.625 60.2516ZM84.1812 63.2592C76.4968 66.6061 66.7667 75.7357 62.9856 83.1487C61.162 86.7245 59.1892 94.2393 58.6023 99.849C57.5471 109.957 57.4895 110.047 52.1375 110.047C48.5261 110.047 45.376 111.498 42.6245 114.426C39.1013 118.176 38.5126 120.461 38.5126 130.398C38.5126 136.776 39.0928 142.576 39.8035 143.285C40.5126 143.994 42.6415 142.914 44.5346 140.882C46.7873 138.463 50.0002 137.189 53.8457 137.189H59.7167V159.719C59.7167 173.173 58.7922 185.816 57.4199 191.101C56.1578 195.97 55.5794 199.953 56.1341 199.953C59.9288 199.953 75.8895 186.292 79.7317 179.756L84.3135 171.963L85.1617 122.77C85.8928 80.3497 86.4186 72.7807 88.9784 67.802C93.1802 59.6291 92.9733 59.4323 84.1812 63.2592ZM540.689 88.1308C537.14 92.7838 530.823 99.0433 526.648 102.041L519.059 107.491L525.037 108.904C536.828 111.693 537.172 112.902 537.751 153.558L538.27 189.936L529.562 197.764L520.855 205.593L532.075 208.417C540.958 210.653 544.801 212.721 550.539 218.353L557.784 225.464L561.928 221.03C564.207 218.592 570.843 213.086 576.673 208.796C587.904 200.531 589.684 197.851 583.458 198.567C581.358 198.809 576.016 197.159 571.584 194.901L563.526 190.794V156.094V121.394L568.059 115.296C570.551 111.942 572.751 108.97 572.948 108.692C573.146 108.412 576.174 110.129 579.679 112.509C587.093 117.54 596.466 118.183 602.348 114.063C606.467 111.179 612.618 99.4707 612.683 94.3919C612.715 91.878 612.114 91.7355 608.479 93.3928C602.571 96.0849 596.717 93.101 592.756 85.3793L589.599 79.2284L576.99 95.9101C566.045 110.392 564.313 112.032 563.86 108.351C562.312 95.7218 556.475 84.8789 548.972 80.6924C547.964 80.1309 544.237 83.4778 540.689 88.1308ZM1435.44 87.3233C1430.31 91.4912 1422.87 96.9737 1418.9 99.5064C1414.94 102.037 1411.7 105.065 1411.69 106.231C1411.69 109.023 1412.77 108.909 1418.53 105.506C1422.72 103.028 1423.72 102.974 1426.26 105.082C1432.79 110.502 1433.74 117.024 1433.74 156.583C1433.74 192.942 1433.58 194.83 1430.37 196.55C1428.51 197.544 1425.77 200.725 1424.27 203.62L1421.55 208.882L1426.01 207.763C1433.36 205.917 1442.84 209.578 1450.35 217.16L1457.33 224.207L1470.75 212.11C1478.13 205.456 1485.13 198.854 1486.3 197.439C1489.48 193.614 1491.42 194.309 1491.42 199.273C1491.42 206.192 1496.31 214.78 1503.5 220.472L1510.09 225.691L1515.41 221.209C1528.31 210.36 1549.07 203.345 1568.29 203.345C1578.74 203.345 1579.87 203.028 1578.84 200.377C1575.75 192.358 1574.54 178.089 1574.54 149.48V118.132L1581.32 111.547C1589.1 104.003 1590.17 99.9457 1584.08 101.109C1577.66 102.338 1569.88 97.1162 1564.75 88.1206L1560.01 79.8374L1543.53 92.5073C1534.46 99.4758 1527.04 105.891 1527.04 106.763C1527.04 109.182 1530.67 108.658 1533.85 105.783C1536.42 103.457 1537.28 103.768 1542.89 109.06L1549.09 114.909V157.08V199.25L1539.84 202.394C1531.21 205.33 1530.31 205.352 1526.33 202.745C1518.17 197.396 1517.77 195.064 1516.72 146.518C1515.66 98.1272 1514.83 92.7143 1507.04 83.7848L1503.15 79.3302L1498.56 82.8399C1496.03 84.7686 1488.04 90.5939 1480.8 95.7846C1473.56 100.974 1468.07 105.935 1468.61 106.812C1469.18 107.723 1471.65 107.196 1474.38 105.579C1480.61 101.903 1484.15 103.438 1487.56 111.296C1489.74 116.307 1490.5 125.192 1491.07 152.571L1491.79 187.461L1483.73 194.555C1479.3 198.457 1475.17 201.649 1474.56 201.649C1473.95 201.649 1470.69 198.787 1467.32 195.288L1461.19 188.927L1460.39 146.518C1459.9 120.324 1458.81 101.517 1457.53 97.3249C1455.46 90.5328 1448.19 79.4117 1445.95 79.6288C1445.3 79.6932 1440.57 83.1554 1435.44 87.3233ZM476.323 86.4328C466.83 93.559 445.589 99.8694 431.091 99.8694H419.269L423.084 107.079C426.658 113.835 426.936 116.755 427.515 153.54L428.132 192.791L423.118 195.754C417.386 199.139 412.553 206.433 412.553 211.696C412.553 215.281 414.899 215.442 424.229 212.5C431.362 210.251 454.96 217.834 464.841 225.55C468.78 228.624 468.8 228.614 484.75 214.777C494.252 206.536 500.099 200.307 499.186 199.395C498.275 198.484 496.158 198.913 493.96 200.453C490.576 202.823 489.526 202.696 481.519 198.959C476.708 196.713 468.384 193.956 463.019 192.833L453.265 190.793V181.261V171.729L482.951 151.584C499.278 140.503 512.636 130.839 512.636 130.108C512.636 129.377 508.779 123.492 504.065 117.031C499.351 110.57 493.297 100.076 490.611 93.71C487.926 87.3437 485.103 81.9833 484.34 81.7967C483.575 81.6101 479.969 83.6966 476.323 86.4328ZM679.725 87.3131C666.765 94.4445 652.407 98.173 637.895 98.173H626.463L628.921 104.056C632.27 112.069 632.178 148.978 628.786 158.393C627.442 162.125 626.33 165.368 626.316 165.602C626.302 165.836 631.732 166.026 638.382 166.026H650.473L646.439 170.939C644.221 173.641 638.007 181.052 632.631 187.408C622.068 199.898 617.081 209.028 615.358 219.036C613.956 227.174 617.563 227.678 621.201 219.851C626.038 209.449 636.972 209.389 648.389 219.703L655.133 225.796L660.643 221.601C674.59 210.982 680.088 209.283 700.484 209.283C718.835 209.283 719.502 209.155 718.296 205.89C716.588 201.262 716.703 144.064 718.43 139.309C719.801 135.538 719.641 135.492 705.137 135.492H690.459L698.824 124.89C709.59 111.247 715.265 101.22 718.505 90.1155C720.616 82.8722 720.681 81.2098 718.844 81.2098C717.602 81.2098 715.336 83.1181 713.807 85.4506C710.235 90.9009 703.643 90.9925 695.809 85.7016L689.903 81.7119L679.725 87.3131ZM1055.46 87.3725C1043.08 95.0925 1032.13 98.3613 1015.08 99.4249C1002.91 100.185 1001.14 100.682 1002.16 103.055C1007.42 115.374 1007.82 118.98 1007.89 155.105L1007.96 192.53L1002.72 196.407C997.464 200.294 991.807 210.711 993.481 213.42C993.973 214.214 997.318 214.202 1000.92 213.393C1012.91 210.701 1033.17 215.839 1044.43 224.431L1049.7 228.449L1065.39 214.801C1076.16 205.44 1080.54 200.602 1079.34 199.405C1078.14 198.207 1076.59 198.567 1074.4 200.55C1071.37 203.289 1070.73 203.206 1062.29 198.965C1057.39 196.504 1048.88 193.636 1043.39 192.592L1033.41 190.694L1033.45 181.329L1033.49 171.963L1061.98 152.746C1077.65 142.178 1091.44 132.927 1092.63 132.191C1094.23 131.202 1092.71 128.013 1086.82 120.025C1078.22 108.353 1072.4 97.6743 1069.13 87.571C1068 84.0732 1066.56 81.2878 1065.93 81.3828C1065.31 81.4778 1060.59 84.1732 1055.46 87.3725ZM1368.19 87.0044C1355.88 94.6871 1343.51 98.4495 1327.3 99.4402C1319.6 99.9101 1313.3 100.845 1313.3 101.518C1313.3 102.19 1314.64 105.338 1316.27 108.514C1318.78 113.403 1319.33 120.2 1319.8 152.817L1320.37 191.344L1313.57 197.807C1307.64 203.447 1303.08 212.348 1305.09 214.355C1305.46 214.726 1308.87 214.331 1312.67 213.476C1324.89 210.731 1339.64 214.456 1356.75 224.605L1362.03 227.735L1377.6 214.421C1387.5 205.956 1392.58 200.516 1391.54 199.485C1390.52 198.455 1388.58 198.808 1386.23 200.455C1382.81 202.843 1381.71 202.662 1372.09 198.109C1366.35 195.395 1358.02 192.691 1353.59 192.104L1345.53 191.033V181.269C1345.53 172.474 1346 171.208 1350.2 168.515C1352.77 166.869 1366.5 157.59 1380.72 147.894L1406.57 130.266L1399.74 121.618C1393.17 113.309 1379.46 87.3403 1379.46 83.2063C1379.46 80.3752 1378.04 80.8552 1368.19 87.0044ZM234.31 87.2928C232.048 89.7067 225.046 95.5047 218.748 100.176C212.449 104.85 207.297 109.364 207.297 110.208C207.297 112.2 208.466 112.146 212.537 109.966C215.061 108.616 216.491 108.823 218.496 110.826C219.945 112.276 222.542 114.217 224.266 115.14C227.166 116.692 227.441 120.076 227.95 160.505C228.493 203.491 228.569 204.314 232.742 211.685C235.389 216.36 239.416 220.429 243.453 222.511L249.923 225.842L252.713 221.803C254.248 219.583 259.269 213.759 263.872 208.864L272.24 199.965L267.028 198.921C264.162 198.348 260.046 195.997 257.882 193.695C254.052 189.62 253.933 188.528 253.432 152.612L252.918 115.715L259.794 108.84C264.294 104.339 266.669 100.446 266.669 97.5658C266.669 93.537 266.301 93.308 262.286 94.8347C256.72 96.95 247.762 93.023 244.576 87.0706C241.74 81.7695 239.441 81.8204 234.31 87.2928ZM1128.41 85.4404C1127.18 86.923 1120.19 92.3563 1112.87 97.5132C1105.55 102.67 1099.57 107.6 1099.57 108.468C1099.57 110.702 1100.9 110.451 1106.44 107.177C1111.05 104.46 1111.48 104.473 1114.75 107.432C1120.51 112.639 1121.6 121.136 1121.62 160.937C1121.63 181.929 1122.43 201.944 1123.39 205.413C1125.38 212.595 1131.25 220.232 1137.24 223.435C1140.9 225.396 1142.19 225.019 1150.1 219.7C1164.36 210.102 1176.29 206.307 1194.98 205.427C1204.08 204.998 1211.52 204.545 1211.51 204.421C1211.49 204.295 1210.35 200.446 1208.96 195.866C1207.08 189.665 1206.43 178.74 1206.43 153.073C1206.43 119.162 1206.5 118.566 1210.27 116.096C1212.38 114.716 1215.47 111.262 1217.15 108.424L1220.2 103.262H1214.22C1207.22 103.262 1197.88 96.017 1194.56 88.0036C1193.4 85.1995 1191.79 82.9061 1190.99 82.9061C1189.81 82.9061 1164.52 101.423 1158.23 106.889C1157.34 107.661 1157.91 108.716 1159.57 109.348C1161.23 109.988 1163.73 109.303 1165.47 107.735C1168.27 105.199 1168.91 105.457 1174.73 111.416L1180.99 117.823V159.412V201.001L1172.2 203.814C1162.01 207.071 1157.38 205.705 1151.46 197.709C1148.12 193.196 1147.86 190.218 1147.06 145.97C1146.23 99.7235 1146.15 98.9076 1141.95 91.3877C1137.36 83.1741 1132.18 80.8993 1128.41 85.4404ZM1253.8 87.3199C1251.54 89.7491 1244.54 95.5777 1238.24 100.276C1228.02 107.903 1223.18 113.581 1228.91 111.24C1230.08 110.763 1232.18 109.939 1233.58 109.41C1235 108.87 1238.36 110.415 1241.21 112.918L1246.3 117.391L1247.15 160.793C1247.96 202.548 1248.15 204.46 1252.01 211.203C1254.31 215.206 1258.91 219.832 1262.75 221.99L1269.47 225.767L1272.17 221.766C1273.66 219.564 1278.82 213.768 1283.63 208.882L1292.38 200L1286.72 198.938C1283.43 198.323 1279.28 195.761 1276.82 192.847C1272.6 187.827 1272.59 187.748 1272.59 151.426V115.033L1278.38 109.952C1283.91 105.092 1288.62 96.1018 1286.65 94.1358C1286.13 93.6235 1284.3 93.9577 1282.58 94.8805C1277.83 97.4233 1271.5 95.0654 1265.88 88.6634C1263.1 85.4964 1260.17 82.9061 1259.37 82.9061C1258.57 82.9061 1256.07 84.8925 1253.8 87.3199ZM662.337 98.7345L656.824 100.36V126.52V152.681L660.746 152.143C665.001 151.562 701.175 114.395 706.62 105.013L709.768 99.5895L702.549 104.818C691.804 112.602 682.688 112.203 674.21 103.579C668.344 97.6116 667.423 97.2367 662.337 98.7345ZM454.396 101.001C453.058 102.338 452.844 164.33 454.178 164.33C456.486 164.33 485.495 143.674 485.495 142.03C485.495 141.01 480.128 131.106 473.57 120.022C462.25 100.894 458.361 97.0348 454.396 101.001ZM1034.54 101.001C1032.9 102.636 1033.14 164.33 1034.79 164.33C1035.87 164.33 1064.77 145.328 1067.04 143.124C1067.34 142.827 1062 132.988 1055.17 121.257C1045.59 104.819 1041.93 99.922 1039.21 99.8982C1037.26 99.8829 1035.16 100.378 1034.54 101.001ZM1346.67 101.001C1345.33 102.338 1345.11 164.33 1346.45 164.33C1347.1 164.33 1374.46 146.561 1379.03 143.16C1379.27 142.987 1373.92 133.209 1367.16 121.431C1357.71 104.969 1354.05 100 1351.33 99.944C1349.39 99.9033 1347.29 100.378 1346.67 101.001ZM339.921 110.638L327.737 119.167V140.052C327.737 151.54 328.181 160.937 328.726 160.937C329.64 160.937 366.757 132.266 366.749 131.565C366.745 131.392 363.451 124.693 359.426 116.68L352.108 102.107L339.921 110.638ZM143.169 118.507C139.838 121.286 139.337 123.089 139.777 130.749L140.292 139.733H148.774H157.256L157.758 130.179C158.496 116.178 152.1 111.062 143.169 118.507ZM139.444 155.334V166.026H148.774H158.104L158.102 155.424L158.1 144.822L148.772 144.732L139.444 144.642V155.334ZM652.811 173.797C639.875 186.411 629.615 197.057 630.012 197.454C630.409 197.851 634.704 196.667 639.556 194.823C654.092 189.3 661.951 190.531 672.763 200.026C678.02 204.641 679.752 205.255 684.826 204.304L690.751 203.191V176.976V150.759L683.542 150.81C676.597 150.859 675.469 151.702 652.811 173.797ZM140.576 170.55C139.953 171.171 139.444 177.188 139.444 183.919C139.444 195.922 139.558 196.245 145.407 200.706C149.374 203.732 152.497 204.896 154.737 204.185C157.778 203.22 158.104 201.586 158.104 187.298C158.104 174.437 157.602 171.285 155.42 170.449C151.826 169.069 141.989 169.136 140.576 170.55Z" fill="black"/>
</svg>
