<svg width="1560" height="243" viewBox="0 0 1560 243" fill="none" xmlns="http://www.w3.org/2000/svg">
<path fill-rule="evenodd" clip-rule="evenodd" d="M49.8474 20.303C32.0674 35.943 7.3194 59.556 7.0064 61.178C6.8194 62.151 10.7374 65.728 17.6154 70.861L28.5214 79L29.1914 92.75C30.5724 121.105 31.7394 145.955 32.3494 160L32.9784 174.5L22.8904 184.388C17.3424 189.826 12.8074 194.776 12.8124 195.388C12.8184 195.999 14.5054 197.245 16.5624 198.155C18.6194 199.065 30.4274 204.387 42.8024 209.982C66.9634 220.905 96.1164 233 98.2844 233C99.0154 233 105.169 227.214 111.958 220.143L124.302 207.287L138.302 201.028C157.562 192.418 163.453 189.353 164.13 187.589C164.632 186.281 165.311 176.764 167.22 144.264C167.559 138.499 167.306 136.641 165.974 135.121C163.589 132.399 147.775 120.352 136.183 112.426C130.748 108.71 125.872 105.291 125.346 104.829C124.779 104.33 131.391 97.242 141.596 87.41C151.059 78.292 158.802 70.154 158.802 69.325C158.802 67.11 121.351 30 119.115 30C117.191 30 106.143 39.499 92.5824 52.814C88.3364 56.983 84.6714 60.192 84.4384 59.947C84.2044 59.701 81.6884 53.875 78.8464 47C69.7764 25.057 63.3044 11.525 61.7774 11.312C60.9664 11.199 55.5974 15.245 49.8474 20.303ZM804.154 25.165C785.629 41.719 767.652 58.661 766.479 60.672C765.888 61.686 768.771 65.273 776.729 73.425C782.819 79.664 787.817 85.608 787.835 86.634C787.853 87.66 788.293 95.475 788.813 104C789.333 112.525 790.433 131.875 791.258 147C792.082 162.125 793.029 176.6 793.362 179.168C793.854 182.964 793.611 184.177 792.062 185.668C791.014 186.675 786.676 190.797 782.422 194.827C778.168 198.858 774.849 202.683 775.048 203.327C775.976 206.343 819.816 233.728 821.776 232.516C822.678 231.959 845.475 201.775 851.767 192.807C853.578 190.225 854.825 187.503 854.539 186.758C854.253 186.012 852.508 184.904 850.661 184.296C836.723 179.706 820.165 173.757 819.509 173.104C818.713 172.311 840.054 151.724 842.171 151.243C842.793 151.101 846.002 156.026 849.302 162.185C852.602 168.345 857.151 176.561 859.411 180.442C861.671 184.324 867.464 194.475 872.284 203C883.579 222.978 889.79 233 890.875 233C891.999 233 922.848 212.399 931.27 206.024L937.751 201.119L950.027 206.943C972.008 217.373 1006.81 231 1011.46 231C1013.83 231 1025.49 221.847 1040.96 207.838C1045.72 203.527 1050.03 200 1050.53 200C1051.04 200 1057.49 202.496 1064.88 205.548C1098.02 219.241 1116.7 226.183 1118.09 225.323C1118.53 225.048 1123.16 219.703 1128.37 213.445C1133.58 207.186 1139.93 200.364 1142.48 198.283C1147.79 193.956 1166.91 177.777 1171.13 174.037L1173.95 171.534L1173.32 162.017C1172.97 156.783 1171.99 144.4 1171.14 134.5C1170.05 121.818 1169.78 111.404 1170.23 99.25C1170.64 88.464 1170.52 82 1169.92 82C1167.97 82 1149.97 92.854 1129.55 106.332C1121.35 111.745 1118.8 113.945 1118.8 115.605C1118.8 119.022 1123.65 155.994 1126.18 171.797C1127.43 179.66 1128.11 186.312 1127.67 186.579C1127.24 186.846 1122.82 185.02 1117.85 182.522C1109.75 178.456 1108.8 177.693 1108.81 175.24C1108.83 170.845 1111.7 125.088 1112.38 118.412C1112.93 113.058 1112.67 111.673 1110.27 106.912C1106.74 99.941 1095.37 80.924 1092.9 77.878L1091 75.529L1085.65 79.218C1071.96 88.658 1043.03 113.343 1042.88 115.716C1042.84 116.385 1046.35 119.76 1050.68 123.216L1058.55 129.5L1059.22 138.5C1060.55 156.214 1061.6 185.521 1060.96 186.662C1059.57 189.119 1049.91 196 1047.85 196C1044.55 196 997.239 183.77 996.086 182.618C995.846 182.377 1000.9 178.652 1007.32 174.34C1018.41 166.891 1026.15 161.392 1042.55 149.297C1046.54 146.357 1049.8 143.335 1049.8 142.581C1049.8 138.644 1022.43 78.178 1020.27 77.351C1019.24 76.953 1012.52 80.359 990.802 92.28C987.227 94.243 981.602 96.596 978.302 97.51C975.002 98.423 964.737 101.682 955.49 104.752L938.678 110.332L939.287 119.416C939.622 124.412 940.313 133.225 940.821 139C941.33 144.775 942.275 158.627 942.92 169.783C944.047 189.267 944.019 190.123 942.198 191.501C941.155 192.291 939.852 192.943 939.302 192.951C938.752 192.959 929.893 180.261 919.616 164.733C909.339 149.205 897.774 131.942 893.917 126.371C888.162 118.057 887.12 115.972 888.103 114.737C888.763 113.91 894.027 109.048 899.802 103.935C919.458 86.53 926.802 79.577 926.802 78.374C926.802 74.485 889.769 30 886.532 30C885.199 30 861.635 48.567 853.538 55.997C849.818 59.41 846.183 61.976 845.461 61.699C844.739 61.422 843.336 59.014 842.343 56.348C835.717 38.557 822.888 11 821.231 11C820.558 11 812.873 17.374 804.154 25.165ZM204.188 21.75C200.496 27.113 196.513 32.85 195.336 34.5C190.636 41.09 175.802 65.898 175.809 67.157C175.813 67.896 179.323 72.294 183.61 76.932L191.403 85.364L210.852 72.567C221.55 65.529 233.356 57.517 237.088 54.764L243.873 49.758L242.163 47.129C238.494 41.49 212.994 12 211.787 12C211.299 12 207.879 16.387 204.188 21.75ZM1205.11 28.25C1190.23 50.278 1180.5 66.696 1181.42 68.246C1183.53 71.792 1196.31 85.019 1197.27 84.65C1199.82 83.67 1242.22 55.368 1248.76 50.275C1249.56 49.652 1246.54 45.442 1237.47 34.55C1227 21.973 1217.88 12 1216.84 12C1216.43 12 1211.16 19.313 1205.11 28.25ZM294.251 30.757C269.074 45.945 249.802 59.111 249.802 61.124C249.802 61.638 251.511 64.221 253.6 66.863L257.397 71.668L258.599 106.084C259.26 125.013 260.088 150.861 260.438 163.523L261.074 186.547L255.398 190.926L249.722 195.305L245.012 193.097C235.478 188.628 235.703 189.096 236.791 176C237.317 169.675 238.259 156.4 238.884 146.5C239.509 136.6 240.313 124.036 240.671 118.58L241.323 108.66L237.877 104.08C231.596 95.732 218.646 81 217.588 81C215.358 81 172.17 112.59 170.625 115.352C170.17 116.164 172.186 118.132 176.391 120.984C179.95 123.397 183.059 126.297 183.307 127.434C183.555 128.57 184.216 139.175 184.776 151C185.336 162.825 186.035 175.65 186.329 179.5L186.863 186.5L180.333 191.81C176.741 194.731 173.802 197.511 173.802 197.988C173.802 199.632 217.192 228 219.707 228C221.017 228 230.288 220.088 242.558 208.5C246.635 204.65 250.372 201.353 250.863 201.174C251.354 200.995 258.404 204.862 266.529 209.768C274.654 214.674 284.377 220.392 288.135 222.476L294.968 226.265L311.004 210.229C319.823 201.409 326.761 193.743 326.422 193.194C326.082 192.644 322.197 190.501 317.788 188.432C310.002 184.779 309.787 184.583 310.245 181.586C310.504 179.888 311.004 167.475 311.355 154C311.991 129.583 312.289 124.179 313.042 123.426C313.261 123.208 317.93 126.51 323.419 130.765C328.908 135.019 334.925 139.662 336.791 141.082L340.182 143.664L327.904 150.98C321.151 155.004 315.41 158.857 315.148 159.542C314.536 161.135 319.118 170.199 332.69 194.246C348.448 222.167 350.137 225 351.026 225C352.036 225 376.312 212.69 388.425 206.035L397.549 201.023L411.925 207.874C433.582 218.195 466.465 231.013 471.227 230.99C473.839 230.978 482.242 224.398 500.905 207.75C505.684 203.487 509.845 200 510.152 200C510.459 200 515.119 202.845 520.506 206.322C525.894 209.8 537.189 216.608 545.605 221.451C557.77 228.452 561.318 230.075 562.906 229.367C565.792 228.079 593.802 199.955 593.802 198.345C593.802 197.599 588.177 194.188 581.302 190.763L568.802 184.537L568.856 176.519C568.931 165.211 571.293 128.175 571.983 127.486C572.298 127.17 577.635 132.332 583.843 138.956C590.051 145.58 595.619 151.011 596.216 151.024C596.813 151.038 602.335 145.75 608.488 139.274C616.229 131.125 619.832 127.962 620.189 129C627.579 150.492 636.79 171.675 639.138 172.575C640.606 173.139 656.078 168.208 669.578 162.874C673.58 161.294 677.439 160 678.153 160C679.423 160 692.404 189.731 691.52 190.615C691.278 190.857 687.813 189.04 683.819 186.578C675.893 181.691 662.934 176.626 653.067 174.558L646.783 173.24L641.621 178.87C630.298 191.219 617.153 209.14 618.188 210.816C618.486 211.298 623.358 211.98 629.016 212.333C646.021 213.394 666.383 218.251 680.677 224.656C691.693 229.592 690.151 229.853 698.653 221.621C705.397 215.09 708.215 213.259 722.472 206.141C731.365 201.701 738.991 197.503 739.418 196.812C742.349 192.069 729.647 135.918 724.353 130.215C722.95 128.703 713.662 131.707 691.985 140.684C684.66 143.717 678.546 146.041 678.398 145.849C678.054 145.402 672.748 126.534 671.761 122.25C670.89 118.468 671.491 118.297 676.592 120.875C682.058 123.637 695.303 127.917 703.302 129.507L710.302 130.899L712.911 127.906C716.775 123.473 731.998 95.259 731.615 93.24C731.368 91.938 730.153 91.442 726.793 91.268C714.745 90.647 685.721 85.953 672.282 82.453C665.46 80.676 666.454 80.066 655.248 92.897C647.294 102.005 646.719 102.438 636.589 106.962L626.136 111.63L612.382 97.315C604.818 89.442 598.133 83 597.527 83C596.921 83 590.75 88.844 583.814 95.988L571.203 108.975L567.303 102.238C561.433 92.095 552.685 78.587 551.499 77.832C550.172 76.988 542.365 82.285 528.231 93.621C509.505 108.638 502.938 114.437 502.886 116C502.858 116.825 506.344 120.242 510.631 123.592L518.426 129.685L519.627 151.092C520.288 162.867 520.823 175.685 520.816 179.578L520.802 186.656L515.052 191.323C511.889 193.89 508.459 195.992 507.428 195.995C506.398 195.998 496.723 193.742 485.928 190.983C457.747 183.778 456.433 183.4 456.123 182.402C455.969 181.906 461.122 178.014 467.573 173.754C474.024 169.494 486.052 161.138 494.302 155.186C507.322 145.793 509.279 144.026 509.129 141.795C508.795 136.821 482.391 78.163 480.089 77.28C479.422 77.024 471.037 81.103 461.457 86.345C451.877 91.587 441.398 96.607 438.17 97.5C434.943 98.394 424.72 101.647 415.454 104.73L398.605 110.334L399.252 121.417C399.608 127.513 400.32 137.675 400.835 144C401.349 150.325 402.251 163.089 402.838 172.365C403.812 187.77 403.757 189.392 402.198 191.115C401.26 192.152 400.149 193 399.729 193C399.012 193 359.802 138.735 359.802 137.742C359.802 137.488 365.202 133.591 371.802 129.082C378.402 124.573 383.802 120.316 383.802 119.621C383.802 118.927 380.09 114.292 375.552 109.321C371.014 104.351 363.559 96.17 358.984 91.142C354.41 86.114 350.085 82 349.373 82C347.837 82 335.72 89.86 323.661 98.68C314.973 105.034 312.784 106.059 312.824 103.75C312.836 103.063 313.262 89.675 313.772 74C315.359 25.208 315.35 20.539 313.674 20.215C312.863 20.058 304.122 24.802 294.251 30.757ZM1335.3 79.807C1314.82 91.343 1305.5 96.054 1300.3 97.5C1297 98.418 1286.77 101.659 1277.55 104.702L1260.8 110.234L1260.83 113.367C1260.85 115.09 1261.28 122.125 1261.79 129C1262.3 135.875 1263.46 152.293 1264.35 165.484L1265.99 189.468L1262.14 192.719C1260.03 194.507 1257.72 195.977 1257.02 195.985C1256.31 195.993 1252.61 194.313 1248.79 192.25L1241.84 188.5L1241.85 183.5C1241.86 180.75 1242.3 172.65 1242.84 165.5C1245.59 129.061 1246.7 108.566 1245.97 107.587C1237.31 95.963 1224.17 81 1222.62 81C1220.24 81 1176.8 113.352 1176.06 115.673C1175.86 116.319 1178.38 118.679 1181.68 120.919C1184.98 123.158 1187.94 125.406 1188.25 125.913C1188.79 126.795 1190.04 145.427 1191.44 173.569L1192.1 186.637L1185.91 191.497C1182.23 194.387 1179.84 196.993 1180.01 197.928C1180.36 199.789 1222.23 228.001 1224.64 227.999C1226.22 227.997 1248.04 209.146 1253.94 202.694L1256.71 199.653L1272.01 206.936C1295.61 218.171 1328.33 231 1333.39 231C1335.93 231 1353.52 216.863 1367.98 203.208L1371.66 199.735L1393.98 209.302C1422.01 221.316 1436.83 227.1 1437.9 226.442C1438.35 226.16 1442.2 221.108 1446.45 215.215C1450.7 209.322 1454.33 204.307 1454.5 204.072C1454.68 203.837 1456.73 204.717 1459.06 206.029C1463.98 208.796 1486.82 220.822 1494.68 224.787L1500.06 227.5L1515.18 211.868C1525.79 200.904 1533.33 194.105 1540.44 189.101C1546.02 185.177 1551.11 181.334 1551.75 180.561C1552.61 179.522 1552.66 177.111 1551.92 171.327C1551.37 167.022 1550.64 160.125 1550.29 156C1549.95 151.875 1549.02 142.1 1548.24 134.278C1547.45 126.457 1546.8 111.746 1546.8 101.587C1546.8 90.206 1546.41 82.878 1545.79 82.493C1544.45 81.664 1536.07 86.453 1520.8 96.78C1503.28 108.634 1497.91 113.06 1497.85 115.706C1497.8 117.912 1502.07 146.567 1505.91 169.845C1507.03 176.635 1507.67 182.463 1507.34 182.795C1506.74 183.392 1496.36 180.922 1491.17 178.949L1488.5 177.935L1489.2 165.217C1491.01 132.316 1492.63 85.426 1491.98 84.779C1491.2 83.995 1467.25 97.678 1451.44 107.949L1441.57 114.356L1442.27 134.928C1442.66 146.242 1443.34 161.575 1443.79 169C1444.24 176.425 1444.25 182.88 1443.81 183.345C1443.37 183.81 1439.7 183.128 1435.66 181.828L1428.3 179.466L1428.54 171.983C1428.67 167.867 1429.42 153.044 1430.2 139.042L1431.63 113.585L1429.07 108.542C1425.72 101.924 1413.01 80.897 1411.25 79.076C1410.08 77.853 1408.57 78.652 1400.59 84.746C1383.18 98.041 1364.8 114.076 1364.8 115.97C1364.8 116.442 1368.34 119.774 1372.65 123.376L1380.51 129.925L1381.16 137.213C1381.52 141.221 1382.06 154.175 1382.36 166L1382.91 187.5L1376.96 191.75C1373.69 194.088 1370.27 196 1369.36 196C1367.54 196 1354.7 192.877 1336.3 187.96C1329.7 186.196 1323.04 184.471 1321.5 184.126C1319.96 183.782 1318.61 183.066 1318.5 182.535C1318.39 182.004 1324.59 177.313 1332.27 172.111C1339.95 166.91 1351.88 158.512 1358.77 153.449C1369.24 145.762 1371.28 143.843 1371.14 141.801C1370.75 136.074 1344.13 77.686 1341.71 77.245C1340.93 77.105 1338.05 78.258 1335.3 79.807ZM85.6184 102.25C85.4204 113.938 85.3594 123.666 85.4824 123.869C85.6064 124.072 87.6404 122.553 90.0044 120.494C92.3684 118.435 98.2404 113.372 103.052 109.243C107.865 105.115 111.802 101.387 111.802 100.959C111.802 99.913 88.3024 81 87.0024 81C86.3454 81 85.8484 88.632 85.6184 102.25ZM845.469 81.667C845.102 82.033 844.802 94.434 844.802 109.223V136.113L847.052 134.54C852.357 130.83 875.704 111.429 875.751 110.691C875.811 109.739 847.797 81 846.809 81C846.438 81 845.835 81.3 845.469 81.667ZM448.606 145.697C448.4 157.138 448.529 166.872 448.893 167.327C449.72 168.359 467.82 155.238 467.752 153.655C467.675 151.871 451.431 125.71 450.131 125.276C449.297 124.998 448.878 130.607 448.606 145.697ZM989.469 125.667C988.622 126.513 988.584 168 989.43 168C990.154 168 1003.25 158.564 1006.45 155.738L1008.6 153.839L999.952 139.439C995.195 131.52 991.039 125.031 990.719 125.02C990.398 125.009 989.835 125.3 989.469 125.667ZM1310.61 145.686C1310.44 157.134 1310.58 166.872 1310.93 167.327C1311.71 168.362 1329.81 155.232 1329.77 153.655C1329.73 151.864 1313.45 125.704 1312.11 125.263C1311.22 124.971 1310.84 130.133 1310.61 145.686ZM78.7874 140.307C76.3044 142.613 71.2534 147.2 67.5624 150.5C63.6924 153.96 61.1584 156.951 61.5764 157.564C63.8614 160.915 110.491 192.31 111.895 191.443C112.778 190.897 111.973 164.02 110.95 159.877C110.518 158.13 106.554 154.219 99.0854 148.171C82.4494 134.702 84.1234 135.351 78.7874 140.307Z" fill="#FF7800"/>
</svg>
